<?xml version="1.0" encoding="UTF-8" standalone="no"?>
<!DOCTYPE svg PUBLIC "-//W3C//DTD SVG 1.1//EN" "http://www.w3.org/Graphics/SVG/1.1/DTD/svg11.dtd">
<!-- Created with Vectornator (http://vectornator.io/) -->
<svg height="100%" stroke-miterlimit="10" style="fill-rule:nonzero;clip-rule:evenodd;stroke-linecap:round;stroke-linejoin:round;" version="1.1" viewBox="0 0 72 72" width="100%" xml:space="preserve" xmlns="http://www.w3.org/2000/svg" xmlns:vectornator="http://vectornator.io" xmlns:xlink="http://www.w3.org/1999/xlink">
<defs/>
<g id="skin" vectornator:layerName="skin">
<path d="M43.3399 29.9534C43.3399 29.9534 37.1436 25.6634 35.7137 24.2334C35.3508 23.7162 35.0918 23.1334 34.9511 22.5175C34.6642 21.7549 36.0941 18.9904 37.524 19.0867C39.0949 19.4317 40.6054 20.0098 42.0053 20.8016C43.3399 21.3736 44.1025 20.2297 44.4838 19.5633L37.047 16.0357L32.187 20.4207L28.7552 23.8534L25.9903 30.7157L28.9445 30.0494L36.2857 28.8094L43.3399 29.9534Z" fill="#ffb100" fill-rule="nonzero" opacity="1" stroke="none"/>
<path d="M17.3156 25.9487C17.3156 24.3693 18.596 23.0889 20.1754 23.0889C21.7548 23.0889 23.0352 24.3693 23.0352 25.9487C23.0352 27.5281 21.7548 28.8085 20.1754 28.8085C18.596 28.8085 17.3156 27.5281 17.3156 25.9487Z" fill="#ffb100" fill-rule="nonzero" opacity="1" stroke="none"/>
<path d="M9.63475 51.2365L10.5269 51.4508C10.918 51.5445 11.213 51.6697 11.4121 51.8266C11.7212 52.0702 11.8757 52.4226 11.8757 52.8839C11.8757 53.3569 11.6948 53.7497 11.333 54.0623C10.9712 54.3749 10.4602 54.5312 9.79984 54.5312C9.12544 54.5312 8.59506 54.3773 8.20869 54.0693C7.82232 53.7614 7.62913 53.3382 7.62913 52.7996L8.6618 52.7996C8.69458 53.0361 8.75898 53.2129 8.85498 53.33C9.03061 53.5431 9.33151 53.6496 9.75769 53.6496C10.0129 53.6496 10.2202 53.6215 10.3794 53.5653C10.6815 53.4576 10.8325 53.2574 10.8325 52.9647C10.8325 52.7937 10.7576 52.6614 10.6077 52.5678C10.4578 52.4764 10.2225 52.3957 9.9017 52.3254L9.35375 52.2025C8.81518 52.0807 8.44285 51.9484 8.23679 51.8056C7.88789 51.5667 7.71343 51.1932 7.71343 50.6851C7.71343 50.2214 7.88203 49.8362 8.21923 49.5295C8.55642 49.2227 9.05168 49.0694 9.705 49.0694C10.2506 49.0694 10.716 49.214 11.1012 49.5031C11.4864 49.7923 11.6884 50.2121 11.7071 50.7624L10.6674 50.7624C10.6487 50.4509 10.5129 50.2296 10.26 50.0985C10.0914 50.0119 9.88179 49.9685 9.63124 49.9685C9.35258 49.9685 9.13013 50.0247 8.96387 50.1371C8.79761 50.2495 8.71449 50.4064 8.71449 50.6078C8.71449 50.7928 8.79644 50.931 8.96036 51.0223C9.06573 51.0832 9.29053 51.1546 9.63475 51.2365ZM15.6973 51.37L15.5146 50.369L15.332 51.37L14.7068 54.3978L13.7022 54.3978L12.234 49.2204L13.3826 49.2204L14.0675 52.1849L14.215 53.0103L14.366 52.2025L14.9491 49.2204L16.0907 49.2204L16.7053 52.1849L16.8634 53.0103L17.0215 52.2165L17.7134 49.2204L18.8128 49.2204L17.3551 54.3978L16.3225 54.3978L15.6973 51.37ZM23.4212 53.467L23.4212 54.3978L19.4978 54.3978L19.4978 49.2204L23.2947 49.2204L23.2947 50.1371L20.555 50.1371L20.555 51.2365L23.0699 51.2365L23.0699 52.1357L20.555 52.1357L20.555 53.467L23.4212 53.467ZM26.333 51.6229C26.2487 51.4379 26.0836 51.3454 25.8378 51.3454C25.5521 51.3454 25.3601 51.4379 25.2617 51.6229C25.2078 51.7283 25.1809 51.8852 25.1809 52.0936L25.1809 54.3978L24.1658 54.3978L24.1658 50.5762L25.1388 50.5762L25.1388 51.1347C25.2629 50.9356 25.38 50.794 25.49 50.7097C25.6844 50.5598 25.9361 50.4849 26.2452 50.4849C26.5379 50.4849 26.7744 50.5493 26.9547 50.6781C27.0999 50.7975 27.21 50.9509 27.2849 51.1382C27.416 50.9134 27.5788 50.7483 27.7731 50.6429C27.9792 50.5376 28.2087 50.4849 28.4616 50.4849C28.6302 50.4849 28.7964 50.5177 28.9603 50.5832C29.1242 50.6488 29.2729 50.7635 29.4064 50.9274C29.5141 51.0609 29.5867 51.2248 29.6242 51.4192C29.6476 51.548 29.6593 51.7365 29.6593 51.9847L29.6523 54.3978L28.6266 54.3978L28.6266 51.9601C28.6266 51.8149 28.6032 51.6955 28.5564 51.6018C28.4674 51.4239 28.3035 51.3349 28.0647 51.3349C27.7883 51.3349 27.5975 51.4496 27.4921 51.6791C27.4383 51.8009 27.4113 51.9472 27.4113 52.1182L27.4113 54.3978L26.4033 54.3978L26.4033 52.1182C26.4033 51.891 26.3798 51.7259 26.333 51.6229ZM32.7292 51.6229C32.6449 51.4379 32.4798 51.3454 32.2339 51.3454C31.9483 51.3454 31.7563 51.4379 31.6579 51.6229C31.604 51.7283 31.5771 51.8852 31.5771 52.0936L31.5771 54.3978L30.562 54.3978L30.562 50.5762L31.535 50.5762L31.535 51.1347C31.6591 50.9356 31.7762 50.794 31.8862 50.7097C32.0806 50.5598 32.3323 50.4849 32.6414 50.4849C32.9341 50.4849 33.1706 50.5493 33.3509 50.6781C33.4961 50.7975 33.6062 50.9509 33.6811 51.1382C33.8122 50.9134 33.975 50.7483 34.1693 50.6429C34.3754 50.5376 34.6049 50.4849 34.8578 50.4849C35.0264 50.4849 35.1926 50.5177 35.3565 50.5832C35.5204 50.6488 35.6691 50.7635 35.8026 50.9274C35.9103 51.0609 35.9829 51.2248 36.0204 51.4192C36.0438 51.548 36.0555 51.7365 36.0555 51.9847L36.0485 54.3978L35.0228 54.3978L35.0228 51.9601C35.0228 51.8149 34.9994 51.6955 34.9526 51.6018C34.8636 51.4239 34.6997 51.3349 34.4609 51.3349C34.1845 51.3349 33.9937 51.4496 33.8883 51.6791C33.8345 51.8009 33.8075 51.9472 33.8075 52.1182L33.8075 54.3978L32.7995 54.3978L32.7995 52.1182C32.7995 51.891 32.776 51.7259 32.7292 51.6229ZM38.0049 50.5692L38.0049 54.3978L36.9898 54.3978L36.9898 50.5692L38.0049 50.5692ZM38.0049 49.1888L38.0049 50.1126L36.9898 50.1126L36.9898 49.1888L38.0049 49.1888ZM42.0689 50.787C42.3194 50.9954 42.4447 51.3396 42.4447 51.8196L42.4447 54.3978L41.419 54.3978L41.419 52.069C41.419 51.8676 41.3921 51.7131 41.3383 51.6054C41.2399 51.4087 41.0526 51.3103 40.7763 51.3103C40.4367 51.3103 40.2037 51.4543 40.0773 51.7423C40.0117 51.8945 39.9789 52.0889 39.9789 52.3254L39.9789 54.3978L38.9814 54.3978L38.9814 50.5762L39.9473 50.5762L39.9473 51.1347C40.0761 50.938 40.1979 50.7963 40.3126 50.7097C40.5187 50.5551 40.7798 50.4779 41.0959 50.4779C41.4916 50.4779 41.816 50.5809 42.0689 50.787ZM44.4503 55.0686C44.558 55.16 44.7395 55.2056 44.9947 55.2056C45.3553 55.2056 45.5965 55.085 45.7183 54.8438C45.7979 54.6893 45.8377 54.4294 45.8377 54.0641L45.8377 53.8182C45.7417 53.9821 45.6387 54.1051 45.5286 54.187C45.3296 54.3392 45.0708 54.4153 44.7524 54.4153C44.2606 54.4153 43.8678 54.2426 43.5739 53.8972C43.2801 53.5518 43.1331 53.0841 43.1331 52.494C43.1331 51.925 43.2748 51.4467 43.5581 51.0592C43.8415 50.6716 44.2431 50.4779 44.7629 50.4779C44.9549 50.4779 45.1224 50.5071 45.2652 50.5657C45.5087 50.6664 45.7054 50.8513 45.8553 51.1206L45.8553 50.5692L46.8282 50.5692L46.8282 54.2011C46.8282 54.6952 46.7451 55.0675 46.5789 55.318C46.2932 55.7489 45.7452 55.9643 44.935 55.9643C44.4456 55.9643 44.0464 55.8683 43.7373 55.6763C43.4282 55.4843 43.2572 55.1974 43.2245 54.8157L44.3133 54.8157C44.3414 54.9328 44.3871 55.0171 44.4503 55.0686ZM45.0018 51.3525C44.6505 51.3525 44.4082 51.5175 44.2747 51.8477C44.2044 52.0233 44.1693 52.2399 44.1693 52.4975C44.1693 52.72 44.2068 52.9178 44.2817 53.0911C44.4175 53.4143 44.661 53.5758 45.0123 53.5758C45.2465 53.5758 45.4443 53.4875 45.6059 53.3107C45.7675 53.1339 45.8483 52.8523 45.8483 52.4659C45.8483 52.103 45.7716 51.8266 45.6182 51.637C45.4648 51.4473 45.2593 51.3525 45.0018 51.3525ZM52.0407 52.5362L50.9413 52.5362L50.9413 54.3978L49.8665 54.3978L49.8665 49.2204L52.1215 49.2204C52.6414 49.2204 53.0558 49.3539 53.3649 49.6208C53.674 49.8878 53.8286 50.3011 53.8286 50.8607C53.8286 51.4719 53.674 51.9039 53.3649 52.1568C53.0558 52.4097 52.6144 52.5362 52.0407 52.5362ZM52.7573 50.8677C52.7573 50.5984 52.6864 50.4064 52.5448 50.2917C52.4031 50.177 52.2047 50.1196 51.9494 50.1196L50.9413 50.1196L50.9413 51.644L51.9494 51.644C52.2047 51.644 52.4031 51.5819 52.5448 51.4578C52.6864 51.3337 52.7573 51.137 52.7573 50.8677ZM57.752 51.0539C58.0752 51.459 58.2367 51.9379 58.2367 52.4905C58.2367 53.0525 58.0752 53.5331 57.752 53.9324C57.4289 54.3316 56.9383 54.5312 56.2803 54.5312C55.6223 54.5312 55.1317 54.3316 54.8086 53.9324C54.4854 53.5331 54.3238 53.0525 54.3238 52.4905C54.3238 51.9379 54.4854 51.459 54.8086 51.0539C55.1317 50.6488 55.6223 50.4462 56.2803 50.4462C56.9383 50.4462 57.4289 50.6488 57.752 51.0539ZM56.9512 51.6018C56.7943 51.3958 56.5695 51.2927 56.2768 51.2927C55.9841 51.2927 55.7587 51.3964 55.6006 51.6036C55.4426 51.8108 55.3635 52.1065 55.3635 52.4905C55.3635 52.8745 55.4426 53.1707 55.6006 53.3791C55.7587 53.5876 55.9841 53.6918 56.2768 53.6918C56.5695 53.6918 56.7943 53.5876 56.9512 53.3791C57.1081 53.1707 57.1865 52.8745 57.1865 52.4905C57.1865 52.1065 57.1081 51.8102 56.9512 51.6018ZM62.1461 51.0539C62.4692 51.459 62.6308 51.9379 62.6308 52.4905C62.6308 53.0525 62.4692 53.5331 62.1461 53.9324C61.823 54.3316 61.3324 54.5312 60.6744 54.5312C60.0164 54.5312 59.5258 54.3316 59.2027 53.9324C58.8795 53.5331 58.7179 53.0525 58.7179 52.4905C58.7179 51.9379 58.8795 51.459 59.2027 51.0539C59.5258 50.6488 60.0164 50.4462 60.6744 50.4462C61.3324 50.4462 61.823 50.6488 62.1461 51.0539ZM61.3453 51.6018C61.1884 51.3958 60.9636 51.2927 60.6709 51.2927C60.3782 51.2927 60.1528 51.3964 59.9947 51.6036C59.8367 51.8108 59.7576 52.1065 59.7576 52.4905C59.7576 52.8745 59.8367 53.1707 59.9947 53.3791C60.1528 53.5876 60.3782 53.6918 60.6709 53.6918C60.9636 53.6918 61.1884 53.5876 61.3453 53.3791C61.5021 53.1707 61.5806 52.8745 61.5806 52.4905C61.5806 52.1065 61.5021 51.8102 61.3453 51.6018ZM63.3684 49.2204L64.3695 49.2204L64.3695 54.3978L63.3684 54.3978L63.3684 49.2204Z" fill="#0c0a3e" fill-rule="nonzero" opacity="1" stroke="none"/>
</g>
<g id="color" vectornator:layerName="color">
<path d="M66.5043 28.7142C58.8782 28.7142 56.0184 31.5742 51.252 31.5742C46.4856 31.5742 41.7193 28.7142 35.9997 28.7142C30.2801 28.7142 26.467 31.5742 20.7473 31.5742C15.0276 31.5742 8.3548 28.7142 5.495 28.7142L5.495 39.8674C5.495 41.202 6.8296 47.7796 12.1679 47.7796L60.88 47.7796C66.409 47.7796 66.5043 43.2039 66.5043 38.7235L66.5043 28.7142Z" fill="#0c0a3e" fill-rule="nonzero" opacity="1" stroke="none"/>
</g>
<g id="line" vectornator:layerName="line">
<path d="M6.44851 28.7142C9.30851 28.7142 15.0285 31.5742 20.7476 31.5742C26.4667 31.5742 30.2803 28.7142 35.9999 28.7142C41.7195 28.7142 46.4859 31.5742 51.2523 31.5742C56.0187 31.5742 57.9252 28.7142 65.5513 28.7142" fill="none" opacity="1" stroke="#000000" stroke-linecap="round" stroke-linejoin="round" stroke-width="2"/>
<path d="M45.5327 36.3403C47.3828 36.9347 49.3098 37.2559 51.2527 37.2936C53.8265 37.2936 55.6378 36.4357 57.9256 35.6736" fill="none" opacity="1" stroke="#09ced1" stroke-linecap="round" stroke-linejoin="round" stroke-width="2"/>
<path d="M13.8831 36.245C16.1152 36.894 18.423 37.2465 20.747 37.2936C26.467 37.2936 30.2797 34.4336 35.9993 34.4336" fill="none" opacity="1" stroke="#d434d2" stroke-linecap="round" stroke-linejoin="round" stroke-width="2"/>
<path d="M26.467 43.0132C29.517 42.1553 32.377 41.0114 35.9997 41.0114C40.1941 41.0114 43.9118 42.5366 47.4389 43.3945" fill="none" opacity="1" stroke="#ffb100" stroke-linecap="round" stroke-linejoin="round" stroke-width="2"/>
<path d="M17.1754 25.9487C17.1754 24.2918 18.5186 22.9487 20.1754 22.9487C21.8323 22.9487 23.1754 24.2918 23.1754 25.9487C23.1754 27.6055 21.8323 28.9487 20.1754 28.9487C18.5186 28.9487 17.1754 27.6055 17.1754 25.9487Z" fill="none" opacity="1" stroke="#000000" stroke-linecap="butt" stroke-linejoin="miter" stroke-width="2"/>
<path d="M26.467 30.6207C27.4202 27.7607 27.4202 24.9007 30.28 22.0413C32.1866 20.1347 35.0464 16.3213 36.9529 16.3213C38.8594 16.3213 43.6258 19.1813 43.6258 19.1813" fill="none" opacity="1" stroke="#000000" stroke-linecap="round" stroke-linejoin="round" stroke-width="2"/>
<path d="M42.6726 29.6674C42.6726 29.6674 37.7156 25.9497 35.9997 24.9011C34.1885 23.7572 34.0931 22.9945 34.0931 22.9945" fill="none" opacity="1" stroke="#000000" stroke-linecap="round" stroke-linejoin="round" stroke-width="2"/>
</g>
</svg>
